<?xml version="1.0" encoding="UTF-8"?>
<svg version="1.1" xmlns="http://www.w3.org/2000/svg" width="500" height="500">
<path d="M0 0 C165 0 330 0 500 0 C500 165 500 330 500 500 C335 500 170 500 0 500 C0 335 0 170 0 0 Z " fill="#FEFEFE" transform="translate(0,0)"/>
<path d="M0 0 C1.37671875 0.00676758 1.37671875 0.00676758 2.78125 0.01367188 C5.02090391 0.02533674 7.26041545 0.04170386 9.5 0.0625 C9.17 1.3825 8.84 2.7025 8.5 4.0625 C6.69982422 4.10117187 6.69982422 4.10117187 4.86328125 4.140625 C-7.24885562 4.51479716 -18.71596503 6.12200202 -30.54907227 8.71118164 C-32.5 9.0625 -32.5 9.0625 -35.5 9.0625 C-35.005 10.5475 -35.005 10.5475 -34.5 12.0625 C-33.90867895 18.09397467 -35.07727303 22.17807796 -38.5 27.0625 C-39.96599926 28.59574693 -41.46879932 30.0943636 -43 31.5625 C-49.29213357 37.67841236 -51.67346262 41.99357637 -52.1875 50.875 C-51.9963131 59.16253649 -49.33996758 66.14152033 -46.2265625 73.75 C-42.26319039 83.47653122 -40.53448057 93.84035885 -43.33984375 104.1484375 C-46.01156127 110.13956163 -49.61313437 113.28705467 -55.5 116.0625 C-39.5650154 130.55987107 -39.5650154 130.55987107 -21.5 142.0625 C-21.4175 140.804375 -21.335 139.54625 -21.25 138.25 C-20.63697962 132.50407759 -18.6427169 127.39437693 -16.5 122.0625 C-15.18 122.0625 -13.86 122.0625 -12.5 122.0625 C-12.94171981 124.63919887 -13.42238867 126.89029987 -14.5 129.28125 C-15.72669922 132.6930072 -15.92230186 135.76021646 -16.125 139.375 C-16.23714844 141.25638672 -16.23714844 141.25638672 -16.3515625 143.17578125 C-16.42503906 144.60470703 -16.42503906 144.60470703 -16.5 146.0625 C-6.1957239 149.2022146 4.13680811 150.80686958 14.8125 152.125 C15.49299408 152.20974579 16.17348816 152.29449158 16.87460327 152.38180542 C20.22444369 152.79876899 23.57476043 153.21167293 26.92529297 153.62304688 C47.09086377 156.10208167 68.89237818 159.30885177 86.5 170.0625 C89.27852265 162.76887804 89.87296519 154.19262141 87.84765625 146.625 C86.90793311 144.56002899 85.86303856 142.87444347 84.5 141.0625 C83.82324219 140.14210937 83.82324219 140.14210937 83.1328125 139.203125 C78.26043646 133.53080663 71.83853747 130.28111486 64.5 129.0625 C58.75062756 128.67636168 52.9940638 128.58355867 47.23339844 128.68994141 C40.08214981 128.69301765 35.95507237 127.93644066 30.49121094 123.15991211 C28.46733598 121.73896044 28.46733598 121.73896044 25.88769531 122.81469727 C24.70578613 123.43235962 24.70578613 123.43235962 23.5 124.0625 C18.68825596 126.53711122 13.802287 126.90238226 8.5 126.0625 C5.28048415 124.40994687 3.21882468 122.07538933 1.125 119.125 C0.24694035 116.22740316 0.13073919 114.07812998 0.5 111.0625 C2.29993774 108.36259338 3.583773 106.5206135 6.5 105.0625 C14.56531432 104.36721428 19.81131378 106.71337121 26 111.8125 C26.825 112.555 27.65 113.2975 28.5 114.0625 C29.17546875 113.37542969 29.8509375 112.68835938 30.546875 111.98046875 C31.43890625 111.07941406 32.3309375 110.17835938 33.25 109.25 C34.13171875 108.35667969 35.0134375 107.46335937 35.921875 106.54296875 C41.61811024 101.0625 41.61811024 101.0625 46.5 101.0625 C46.12464841 103.63476238 45.79796938 104.79655537 43.828125 106.5546875 C43.14234375 107.01101562 42.4565625 107.46734375 41.75 107.9375 C37.94868598 110.61756312 35.31190582 113.37187361 32.5 117.0625 C33.48311525 119.91353422 34.40154227 120.99591023 36.92578125 122.703125 C41.77093629 124.54587249 45.94203377 124.21678077 51.0625 124 C63.4581378 123.75320902 74.9575416 125.3012955 84.5 134.0625 C91.08276965 141.93402686 93.95317642 148.27674525 93.8359375 158.546875 C93.31043078 164.0463639 91.55781604 168.9638933 89.5 174.0625 C90.08523438 174.29324219 90.67046875 174.52398437 91.2734375 174.76171875 C94.0667128 176.39357958 95.30992328 178.20835645 97.125 180.875 C97.71539062 181.72707031 98.30578125 182.57914063 98.9140625 183.45703125 C104.68984757 192.94582102 104.73858435 204.75652607 102.921875 215.47265625 C97.30786858 236.47414392 79.26192748 250.52830913 61.30078125 261.03125 C60.70652344 261.3715625 60.11226562 261.711875 59.5 262.0625 C60.59699219 262.01609375 61.69398438 261.9696875 62.82421875 261.921875 C64.2786185 261.8843421 65.73304783 261.84794357 67.1875 261.8125 C67.90873047 261.77898437 68.62996094 261.74546875 69.37304688 261.7109375 C73.25510632 261.6400323 75.10694784 261.8245331 78.51953125 263.890625 C80.5 266.0625 80.5 266.0625 80.5 269.0625 C76.625 268.1875 76.625 268.1875 75.5 267.0625 C63.1490274 265.88326141 51.01594778 265.58499166 39.8515625 271.34375 C26.72463965 278.07550531 11.93143895 280.72811874 -2.5 283.0625 C-3.71429688 283.26101563 -4.92859375 283.45953125 -6.1796875 283.6640625 C-9.63428326 284.07861399 -12.95976298 284.16085296 -16.4375 284.125 C-17.58089844 284.11597656 -18.72429687 284.10695313 -19.90234375 284.09765625 C-20.75957031 284.08605469 -21.61679688 284.07445312 -22.5 284.0625 C-23.16 285.3825 -23.82 286.7025 -24.5 288.0625 C-25.82 288.0625 -27.14 288.0625 -28.5 288.0625 C-28.5 286.7425 -28.5 285.4225 -28.5 284.0625 C-29.52738281 284.08570313 -30.55476563 284.10890625 -31.61328125 284.1328125 C-39.81414872 284.2597118 -47.46736576 283.9685488 -55.5 282.0625 C-47.96048187 285.58983083 -40.45480993 288.56596681 -32.4375 290.8125 C-31.74350098 291.01061279 -31.04950195 291.20872559 -30.33447266 291.4128418 C1.94325465 300.11615435 37.4318325 296.00052631 67.5 282.0625 C68.4887915 281.61753174 68.4887915 281.61753174 69.49755859 281.16357422 C83.86328648 274.66205198 95.73591704 265.36329277 107.5 255.0625 C107.2834375 254.505625 107.066875 253.94875 106.84375 253.375 C104.39210431 246.65567478 103.02071541 240.92630962 105.9375 234.0625 C109.50071042 227.64116674 115.66197767 223.36340421 121.5 219.125 C126.3278841 215.55407981 130.44727442 211.48542647 134.5 207.0625 C135.19609375 206.31202393 135.19609375 206.31202393 135.90625 205.54638672 C143.99856055 196.66044864 147.61039863 188.86432524 149.5 177.0625 C149.72042969 175.94101563 149.94085938 174.81953125 150.16796875 173.6640625 C153.26574202 155.49323135 152.8251784 135.97197393 148.5 118.0625 C148.33371094 117.31629395 148.16742188 116.57008789 147.99609375 115.80126953 C142.78803642 92.49521299 132.29292263 71.99913549 116.5 54.0625 C115.70851563 53.13824219 114.91703125 52.21398437 114.1015625 51.26171875 C109.06310541 45.51597037 103.75964563 40.56048869 97.75 35.83984375 C95.5 34.0625 95.5 34.0625 93.5 32.0625 C93.5 31.0725 93.5 30.0825 93.5 29.0625 C97.81504781 29.56400677 100.54441247 32.31752159 103.6875 35.0625 C104.26411377 35.56088379 104.84072754 36.05926758 105.43481445 36.57275391 C134.19253276 61.65714338 153.1306648 97.88071212 156.5 136.0625 C158.72475078 179.66990107 145.67967395 218.84267767 116.6875 251.625 C115.29972269 253.11172757 113.90473738 254.5917867 112.5 256.0625 C111.95472656 256.65933594 111.40945313 257.25617188 110.84765625 257.87109375 C93.12550688 276.63317364 68.94741327 288.07538434 44.5 295.0625 C43.82855957 295.26343262 43.15711914 295.46436523 42.46533203 295.67138672 C30.02638111 299.24543912 17.5282625 299.46936891 4.6875 299.5 C3.43617783 299.50898819 3.43617783 299.50898819 2.15957642 299.51815796 C-8.78001222 299.57038742 -18.86642626 298.72438403 -29.5 296.0625 C-30.29365967 295.86390381 -31.08731934 295.66530762 -31.9050293 295.46069336 C-65.8084841 286.31451016 -96.19512598 265.75715113 -116.5 237.0625 C-116.89912598 236.50095215 -117.29825195 235.9394043 -117.70947266 235.36083984 C-124.16080207 226.14503471 -128.97971793 216.33982201 -133.5 206.0625 C-134.11681641 204.70705078 -134.11681641 204.70705078 -134.74609375 203.32421875 C-141.94354733 186.66085347 -143.87063565 168.26003315 -143.81567383 150.28344727 C-143.81250619 148.1292074 -143.83613 145.97633836 -143.86132812 143.82226562 C-143.9223361 130.63470304 -141.91777529 118.02767475 -137.6875 105.5 C-137.46513672 104.77232422 -137.24277344 104.04464844 -137.01367188 103.29492188 C-134.835665 96.72548652 -131.31807618 91.84536452 -125.4375 88.125 C-120.15150901 86.23292269 -113.98409267 86.18088004 -108.5 87.0625 C-105.37589926 88.92157499 -103.80883058 89.97900501 -102.80078125 93.515625 C-102.85268495 105.90330775 -108.24629286 116.8379453 -113.51953125 127.828125 C-115.47349798 132.28098943 -115.74845917 136.46729865 -116.0625 141.3125 C-116.14628906 142.57578125 -116.23007813 143.8390625 -116.31640625 145.140625 C-116.37699219 146.10484375 -116.43757813 147.0690625 -116.5 148.0625 C-110.26489499 144.51406625 -105.12290592 140.02511221 -99.9375 135.125 C-99.28088379 134.50544434 -98.62426758 133.88588867 -97.94775391 133.24755859 C-95.34446185 130.78186818 -92.75166379 128.30696129 -90.1796875 125.80859375 C-81.79314233 117.96594586 -71.70926825 114.48194007 -60.73095703 111.88623047 C-56.14568352 110.75323261 -52.83291707 109.61345838 -49.5 106.0625 C-43.95541209 93.83080302 -48.50744021 80.15132993 -52.87890625 68.3046875 C-56.76842447 57.63864246 -58.87136363 48.46919881 -54.0625 37.75 C-51.29118718 32.7365033 -47.99418888 29.33104155 -43.453125 25.87890625 C-39.14807299 21.87520788 -39.06462366 16.61463264 -38.5 11.0625 C-61.35831278 18.90754678 -81.68059632 30.47571684 -98.4375 48.125 C-100.5 50.0625 -100.5 50.0625 -103.5 50.0625 C-102.27879353 41.81935634 -93.53909745 36.82650304 -87.5 32.0625 C-86.64921875 31.34964844 -85.7984375 30.63679688 -84.921875 29.90234375 C-61.53231438 11.06075325 -30.01133876 -0.28353736 0 0 Z " fill="#CCECFE" transform="translate(244.5,32.9375)"/>
<path d="M0 0 C1.37671875 0.00676758 1.37671875 0.00676758 2.78125 0.01367188 C5.02090391 0.02533674 7.26041545 0.04170386 9.5 0.0625 C9.17 1.3825 8.84 2.7025 8.5 4.0625 C6.69982422 4.10117187 6.69982422 4.10117187 4.86328125 4.140625 C-7.24885562 4.51479716 -18.71596503 6.12200202 -30.54907227 8.71118164 C-32.5 9.0625 -32.5 9.0625 -35.5 9.0625 C-35.005 10.5475 -35.005 10.5475 -34.5 12.0625 C-33.90867895 18.09397467 -35.07727303 22.17807796 -38.5 27.0625 C-39.96599926 28.59574693 -41.46879932 30.0943636 -43 31.5625 C-49.29213357 37.67841236 -51.67346262 41.99357637 -52.1875 50.875 C-51.9963131 59.16253649 -49.33996758 66.14152033 -46.2265625 73.75 C-42.26593016 83.46980755 -40.48999605 93.89288771 -43.375 104.18359375 C-45.90400339 109.78234138 -48.85119519 112.55283937 -54.5 115.0625 C-57.38158723 116.01388118 -60.30115046 116.72720234 -63.25 117.4375 C-79.50325763 121.73183897 -89.36789865 130.77032416 -100.875 142.5 C-109.13103507 150.79065156 -109.13103507 150.79065156 -115.3125 151.5 C-118.5 151.0625 -118.5 151.0625 -120.5 149.0625 C-122.76485393 135.97475629 -118.07367643 125.95040689 -112.57275391 114.3515625 C-109.28504624 107.33618992 -106.50445305 100.88465464 -107.5 93.0625 C-111.25300407 90.56049729 -114.16045319 90.56743584 -118.5 91.0625 C-122.52904237 91.99508124 -125.60532734 93.29208743 -128.75 96 C-138.35810181 112.81417816 -139.10757535 133.99256699 -138.75 152.8125 C-138.7298562 154.69659509 -138.71161969 156.58071155 -138.6953125 158.46484375 C-138.65205094 162.99794283 -138.58348382 167.52997074 -138.5 172.0625 C-137.7687793 171.73942871 -137.03755859 171.41635742 -136.28417969 171.08349609 C-132.10022677 169.54918435 -128.16603875 169.6940326 -123.75 169.6875 C-122.8940625 169.66300781 -122.038125 169.63851562 -121.15625 169.61328125 C-113.28295409 169.57749354 -106.38950027 171.77935312 -100.5 177.1875 C-99.943125 177.68507812 -99.38625 178.18265625 -98.8125 178.6953125 C-96.15421282 181.46436165 -96.31839785 184.07519461 -96.171875 187.796875 C-97.11709466 194.32339173 -101.88382883 199.30059886 -105.85546875 204.28125 C-107.78159904 207.53874351 -107.93657347 209.3387851 -107.5 213.0625 C-104.90456427 217.928942 -101.1735188 221.72318641 -97.40234375 225.71875 C-93.24322867 230.84291643 -92.10010486 234.93191945 -92.1875 241.5 C-92.19136719 242.75683594 -92.19523437 244.01367188 -92.19921875 245.30859375 C-92.51267925 249.22074359 -93.29678462 252.34739277 -94.5 256.0625 C-76.41096741 271.39648955 -57.20791936 283.03052086 -34.5 290.0625 C-33.49453125 290.37832031 -32.4890625 290.69414062 -31.453125 291.01953125 C0.86477033 300.50006991 37.30431564 296.05963645 67.5 282.0625 C68.4887915 281.61753174 68.4887915 281.61753174 69.49755859 281.16357422 C83.86328648 274.66205198 95.73591704 265.36329277 107.5 255.0625 C107.2834375 254.505625 107.066875 253.94875 106.84375 253.375 C104.39210431 246.65567478 103.02071541 240.92630962 105.9375 234.0625 C109.50071042 227.64116674 115.66197767 223.36340421 121.5 219.125 C126.3278841 215.55407981 130.44727442 211.48542647 134.5 207.0625 C135.19609375 206.31202393 135.19609375 206.31202393 135.90625 205.54638672 C143.99856055 196.66044864 147.61039863 188.86432524 149.5 177.0625 C149.72042969 175.94101563 149.94085938 174.81953125 150.16796875 173.6640625 C153.26574202 155.49323135 152.8251784 135.97197393 148.5 118.0625 C148.33371094 117.31629395 148.16742188 116.57008789 147.99609375 115.80126953 C142.78803642 92.49521299 132.29292263 71.99913549 116.5 54.0625 C115.70851563 53.13824219 114.91703125 52.21398437 114.1015625 51.26171875 C109.06310541 45.51597037 103.75964563 40.56048869 97.75 35.83984375 C95.5 34.0625 95.5 34.0625 93.5 32.0625 C93.5 31.0725 93.5 30.0825 93.5 29.0625 C97.81504781 29.56400677 100.54441247 32.31752159 103.6875 35.0625 C104.26411377 35.56088379 104.84072754 36.05926758 105.43481445 36.57275391 C134.19253276 61.65714338 153.1306648 97.88071212 156.5 136.0625 C158.72475078 179.66990107 145.67967395 218.84267767 116.6875 251.625 C115.29972269 253.11172757 113.90473738 254.5917867 112.5 256.0625 C111.95472656 256.65933594 111.40945313 257.25617188 110.84765625 257.87109375 C93.12550688 276.63317364 68.94741327 288.07538434 44.5 295.0625 C43.82855957 295.26343262 43.15711914 295.46436523 42.46533203 295.67138672 C30.02638111 299.24543912 17.5282625 299.46936891 4.6875 299.5 C3.43617783 299.50898819 3.43617783 299.50898819 2.15957642 299.51815796 C-8.78001222 299.57038742 -18.86642626 298.72438403 -29.5 296.0625 C-30.29365967 295.86390381 -31.08731934 295.66530762 -31.9050293 295.46069336 C-65.8084841 286.31451016 -96.19512598 265.75715113 -116.5 237.0625 C-116.89912598 236.50095215 -117.29825195 235.9394043 -117.70947266 235.36083984 C-124.16080207 226.14503471 -128.97971793 216.33982201 -133.5 206.0625 C-134.11681641 204.70705078 -134.11681641 204.70705078 -134.74609375 203.32421875 C-141.94354733 186.66085347 -143.87063565 168.26003315 -143.81567383 150.28344727 C-143.81250619 148.1292074 -143.83613 145.97633836 -143.86132812 143.82226562 C-143.9223361 130.63470304 -141.91777529 118.02767475 -137.6875 105.5 C-137.46513672 104.77232422 -137.24277344 104.04464844 -137.01367188 103.29492188 C-134.835665 96.72548652 -131.31807618 91.84536452 -125.4375 88.125 C-120.15150901 86.23292269 -113.98409267 86.18088004 -108.5 87.0625 C-105.37589926 88.92157499 -103.80883058 89.97900501 -102.80078125 93.515625 C-102.85268495 105.90330775 -108.24629286 116.8379453 -113.51953125 127.828125 C-115.47349798 132.28098943 -115.74845917 136.46729865 -116.0625 141.3125 C-116.14628906 142.57578125 -116.23007813 143.8390625 -116.31640625 145.140625 C-116.37699219 146.10484375 -116.43757813 147.0690625 -116.5 148.0625 C-110.26489499 144.51406625 -105.12290592 140.02511221 -99.9375 135.125 C-99.28088379 134.50544434 -98.62426758 133.88588867 -97.94775391 133.24755859 C-95.34446185 130.78186818 -92.75166379 128.30696129 -90.1796875 125.80859375 C-81.79314233 117.96594586 -71.70926825 114.48194007 -60.73095703 111.88623047 C-56.14568352 110.75323261 -52.83291707 109.61345838 -49.5 106.0625 C-43.95541209 93.83080302 -48.50744021 80.15132993 -52.87890625 68.3046875 C-56.76842447 57.63864246 -58.87136363 48.46919881 -54.0625 37.75 C-51.29118718 32.7365033 -47.99418888 29.33104155 -43.453125 25.87890625 C-39.14807299 21.87520788 -39.06462366 16.61463264 -38.5 11.0625 C-61.35831278 18.90754678 -81.68059632 30.47571684 -98.4375 48.125 C-100.5 50.0625 -100.5 50.0625 -103.5 50.0625 C-102.27879353 41.81935634 -93.53909745 36.82650304 -87.5 32.0625 C-86.64921875 31.34964844 -85.7984375 30.63679688 -84.921875 29.90234375 C-61.53231438 11.06075325 -30.01133876 -0.28353736 0 0 Z " fill="#10C26D" transform="translate(244.5,32.9375)"/>
<path d="M0 0 C12.28609626 7.00658518 22.2360667 17.41703534 32.04077148 27.46289062 C32.92551147 28.3687793 32.92551147 28.3687793 33.828125 29.29296875 C34.34536133 29.82817139 34.86259766 30.36337402 35.39550781 30.91479492 C37.02957419 32.53700864 37.02957419 32.53700864 39.875 34.3125 C39.875 34.9725 39.875 35.6325 39.875 36.3125 C38.93140625 36.52003906 37.9878125 36.72757813 37.015625 36.94140625 C22.23909909 40.39113364 12.71444201 47.0143937 2.28515625 57.84765625 C-9.78209757 70.3040662 -9.78209757 70.3040662 -16.125 71.3125 C-16.61633189 61.9635459 -15.9617353 54.83981055 -12.125 46.3125 C-11.52731858 44.94719484 -10.93106686 43.58126327 -10.3359375 42.21484375 C-9.40070592 40.06952522 -8.46103557 37.92724272 -7.49975586 35.79345703 C-5.07807288 30.39252375 -3.95168345 26.16163387 -3.8125 20.25 C-3.77511719 19.20714844 -3.73773438 18.16429687 -3.69921875 17.08984375 C-3.87707744 14.25814886 -3.87707744 14.25814886 -5.75390625 12.46875 C-11.07277151 9.87503646 -18.02834572 10.4082964 -23.61328125 12.0390625 C-29.77689983 14.89452421 -32.68722375 18.86179026 -35.125 25.125 C-40.26832982 40.10774338 -42.36245626 54.68085368 -42.375 70.5 C-42.37567474 71.2606073 -42.37634949 72.0212146 -42.37704468 72.80487061 C-42.31520072 116.70020693 -25.00477318 153.12152237 5.6875 184.14453125 C6.079375 184.52996094 6.47125 184.91539062 6.875 185.3125 C1.46365634 183.80527855 -1.8856218 180.1113732 -5.8125 176.3125 C-6.52365967 175.6326001 -7.23481934 174.9527002 -7.9675293 174.25219727 C-9.38510757 172.89322189 -10.7993368 171.53074322 -12.20996094 170.16455078 C-13.79840132 168.6283564 -15.40128845 167.10711646 -17.0078125 165.58984375 C-23.79206776 159.05645323 -29.49479269 151.83507689 -35.125 144.3125 C-35.55312988 143.74515137 -35.98125977 143.17780273 -36.42236328 142.59326172 C-46.76907418 128.80693627 -55.24265628 114.10683305 -62.125 98.3125 C-62.51300781 97.4565625 -62.90101562 96.600625 -63.30078125 95.71875 C-64.35483588 93.2769246 -65.26174162 90.82817572 -66.125 88.3125 C-66.68380859 86.73662109 -66.68380859 86.73662109 -67.25390625 85.12890625 C-69.98944477 76.12164527 -70.54351735 67.46386979 -70.625 58.0625 C-70.64336914 56.89090332 -70.66173828 55.71930664 -70.68066406 54.51220703 C-70.56884127 38.64007926 -64.26968623 26.06443292 -53.52734375 14.625 C-39.75018378 1.36308341 -18.59315352 -8.60597392 0 0 Z " fill="#CBECFD" transform="translate(144.125,109.6875)"/>
<path d="M0 0 C4.06686814 3.26323552 7.24194491 6.20104473 8.0625 11.5859375 C8.2458366 15.49329887 8.18227197 18.24301519 6.25 21.6875 C2.3148472 23.89502474 -0.79147437 25.01134089 -5.3125 24.125 C-8.36927039 22.12243435 -10.96275649 19.90965026 -13.63671875 17.421875 C-19.12400849 12.71161753 -23.57637276 11.61957415 -30.625 11.83984375 C-35.68267109 12.37648618 -39.00168112 13.77875358 -42.625 17.5 C-45.86492781 22.5398877 -46.6293029 26.80507257 -46.6484375 32.734375 C-46.6550943 33.46062073 -46.6617511 34.18686646 -46.66860962 34.93511963 C-46.67870295 36.46811404 -46.68342767 38.00115209 -46.68310547 39.53417969 C-46.68746109 41.8542724 -46.72376272 44.17243304 -46.76171875 46.4921875 C-46.85549432 57.86805895 -46.85549432 57.86805895 -42.3125 68.125 C-36.85598233 73.44843187 -31.93845505 73.39630422 -24.62890625 73.35546875 C-20.38087802 73.06025831 -15.46841587 72.28091587 -12.3125 69.125 C-12.07596477 66.59903741 -11.89076308 64.09392793 -11.75 61.5625 C-11.70681641 60.85158203 -11.66363281 60.14066406 -11.61914062 59.40820312 C-11.51278223 57.64738088 -11.41211154 55.8862168 -11.3125 54.125 C-12.26511719 54.17140625 -13.21773437 54.2178125 -14.19921875 54.265625 C-15.45347656 54.30171875 -16.70773438 54.3378125 -18 54.375 C-19.24136719 54.42140625 -20.48273438 54.4678125 -21.76171875 54.515625 C-25.92407306 54.05772024 -27.47818179 53.16401897 -30.3125 50.125 C-31.47362464 47.13390012 -31.61919831 44.31125468 -31.3125 41.125 C-29.54746686 38.20356583 -28.35402365 36.64576183 -25.3125 35.125 C-20.71356988 34.85236065 -16.10608678 34.89332357 -11.5 34.875 C-10.21544922 34.854375 -8.93089844 34.83375 -7.60742188 34.8125 C-6.36927734 34.80734375 -5.13113281 34.8021875 -3.85546875 34.796875 C-2.72133545 34.7875293 -1.58720215 34.77818359 -0.41870117 34.76855469 C3.93658385 35.26833588 6.37131803 36.8431939 9.47290039 39.86376953 C12.01543949 44.59723629 11.16440711 50.49684904 11.13354492 55.76904297 C11.12505247 57.98630144 11.15377689 60.2009658 11.18554688 62.41796875 C11.18715968 63.8385409 11.18657983 65.25911757 11.18359375 66.6796875 C11.18544678 67.96343262 11.1872998 69.24717773 11.18920898 70.56982422 C10.24949249 77.22877879 5.90650027 81.30254987 0.95703125 85.453125 C-10.07589568 93.58065121 -21.87388888 95.19025576 -35.3125 94.125 C-46.75062398 92.0898383 -56.19935439 86.68604367 -63.25 77.375 C-69.6938047 66.92958216 -70.96687258 56.90823138 -70.83398438 44.92529297 C-70.81252342 42.62750781 -70.8338941 40.33284749 -70.859375 38.03515625 C-70.88556133 24.71151378 -68.34498686 13.426818 -59.3125 3.125 C-42.75898645 -12.26744546 -18.25824851 -12.93998318 0 0 Z " fill="#03C065" transform="translate(176.3125,356.875)"/>
<path d="M0 0 C0.7321875 -0.01289063 1.464375 -0.02578125 2.21875 -0.0390625 C5.75865778 0.99139011 7.20873022 2.7641861 9.5 5.625 C9.99451343 8.66913961 10.18556989 11.15190318 10.14697266 14.19140625 C10.15573425 15.04241913 10.16449585 15.89343201 10.17352295 16.77023315 C10.19548625 19.57651113 10.18097551 22.38120669 10.1640625 25.1875 C10.16743153 27.14136049 10.17228487 29.09521894 10.17855835 31.04907227 C10.18592551 35.14131653 10.17522913 39.23301461 10.15185547 43.32519531 C10.12336786 48.56793186 10.13977266 53.80938864 10.16971779 59.05207825 C10.18779494 63.08591333 10.1820308 67.11944553 10.16907883 71.15328979 C10.16574597 73.08617301 10.16982766 75.01908383 10.18147659 76.95193481 C10.19419223 79.65489417 10.17479937 82.35578807 10.14697266 85.05859375 C10.16215439 86.25414383 10.16215439 86.25414383 10.17764282 87.47384644 C10.09992833 91.55324652 9.69139604 93.38943118 7.08456421 96.59790039 C3.32119282 99.54955028 1.29667312 100.09526207 -3.5 99.625 C-6.19990662 97.82506226 -8.0418865 96.541227 -9.5 93.625 C-11.57646547 94.61688306 -13.51958038 95.63802727 -15.4375 96.9140625 C-21.68775772 100.96252489 -27.15464811 101.78681383 -34.5 100.625 C-42.19765528 98.30348491 -48.20998242 93.4018407 -52.5 86.625 C-56.05237037 79.23873564 -55.98451446 71.74406898 -55.9375 63.6875 C-55.95748047 62.47642578 -55.97746094 61.26535156 -55.99804688 60.01757812 C-55.99324991 51.15758382 -54.66063771 43.52970779 -49.25 36.3125 C-42.11294244 29.3376483 -35.68386716 27.2628898 -25.80078125 27.33984375 C-18.90409876 27.93565182 -14.7495178 31.40349488 -9.5 35.625 C-9.52618408 34.74239502 -9.55236816 33.85979004 -9.5793457 32.95043945 C-9.66480275 29.6608842 -9.72735745 26.37251578 -9.7746582 23.08227539 C-9.79973147 21.66118709 -9.83379999 20.24022687 -9.87719727 18.81958008 C-9.93817858 16.77132538 -9.96627762 14.72478117 -9.98828125 12.67578125 C-10.01446533 11.44512939 -10.04064941 10.21447754 -10.06762695 8.9465332 C-9.1401327 3.51919585 -5.64757801 -0.09942919 0 0 Z " fill="#02BF64" transform="translate(411.5,349.375)"/>
<path d="M0 0 C0.90975586 0.26594971 1.81951172 0.53189941 2.75683594 0.8059082 C12.16044549 3.49156242 21.61650744 4.86533331 31.3125 6.0625 C31.99299408 6.14724579 32.67348816 6.23199158 33.37460327 6.31930542 C36.72444369 6.73626899 40.07476043 7.14917293 43.42529297 7.56054688 C55.55241303 9.05138256 67.18762953 11.11891341 79 14.3125 C80.02722168 14.58425049 81.05444336 14.85600098 82.11279297 15.13598633 C89.33337438 17.17902813 95.5608534 20.16170457 102 24 C98.43771819 31.46277323 91.7571128 35.7521652 84.2734375 38.87890625 C73.55269321 42.55056927 62.46222187 44.14721111 51.25 45.5 C30.62432211 48.02538623 14.40219182 53.9559142 1.25 70.6875 C-0.54259201 73.03724898 -2.28701628 75.40361664 -4 77.8125 C-8.49219086 82.72583375 -13.4545066 84.67022909 -19.9765625 85.08203125 C-22 85 -22 85 -24.5625 84.125 C-26.4965668 81.26594472 -26.48232721 79.03854979 -26.53125 75.64453125 C-25.10009475 68.52032458 -20.84589267 63.24917729 -16.0625 58 C-3.41498294 43.65509814 -1.04707527 31.92681252 -0.4375 13 C-0.39431641 11.74832031 -0.35113281 10.49664062 -0.30664062 9.20703125 C-0.20121983 6.13811477 -0.09909658 3.06912611 0 0 Z " fill="#CCECFE" transform="translate(228,179)"/>
<path d="M0 0 C3.5386994 1.65139305 4.81070153 2.71605229 7 6 C7.20580691 8.97225197 7.30102419 11.85858391 7.30859375 14.83203125 C7.33375941 16.61784173 7.35915735 18.40364894 7.38476562 20.18945312 C7.41347127 23.00039789 7.43749188 25.81128588 7.45629883 28.62231445 C7.47801952 31.33835585 7.51746963 34.0537243 7.55859375 36.76953125 C7.55870956 37.60410355 7.55882538 38.43867584 7.5589447 39.29853821 C7.64244782 44.24842278 8.21977299 47.73213278 11 52 C15.27529205 54.8501947 18.99037124 54.36811969 24 54 C26.97514011 53.58184478 26.97514011 53.58184478 29 52 C31.23455509 46.93064243 31.27997152 42.26819637 31.2734375 36.83984375 C31.29371593 35.05923839 31.3145665 33.27863946 31.3359375 31.49804688 C31.35856939 28.7111259 31.37502729 25.92445998 31.38085938 23.13745117 C31.39038409 20.43362242 31.42414389 17.73091977 31.4609375 15.02734375 C31.45589203 14.19702133 31.45084656 13.36669891 31.44564819 12.51121521 C31.51399448 8.48623111 31.69728016 6.47607322 33.90869141 2.99829102 C37.03681868 0.00929712 37.03681868 0.00929712 40.0234375 -0.01953125 C40.79945313 0.04878906 41.57546875 0.11710937 42.375 0.1875 C43.14585937 0.24292969 43.91671875 0.29835938 44.7109375 0.35546875 C47.80373341 1.22630719 48.98126707 2.51445921 51 5 C51.5146637 7.72520447 51.5146637 7.72520447 51.53344727 10.88256836 C51.5492836 12.06737289 51.56511993 13.25217743 51.58143616 14.47288513 C51.57647629 15.74898148 51.57151642 17.02507782 51.56640625 18.33984375 C51.57260483 19.65408829 51.57880341 20.96833282 51.58518982 22.32240295 C51.59558902 25.10240204 51.59104098 27.88188913 51.57641602 30.66186523 C51.55923719 34.21767812 51.582711 37.77187369 51.61790562 41.32750607 C51.64520013 44.72754668 51.6351418 48.12719865 51.62890625 51.52734375 C51.64216446 52.80141586 51.65542267 54.07548798 51.66908264 55.38816833 C51.56549267 65.20699063 51.56549267 65.20699063 48.67944336 68.27954102 C45.29888086 70.45018557 43.01572069 71 39 71 C35.42612398 69.41161066 34.18910428 68.28365642 32 65 C29.39406936 66.25084671 26.8805129 67.62405314 24.375 69.0625 C18.08360672 72.67422577 11.86527726 73.2287731 4.7109375 71.421875 C-2.61788398 68.21004089 -8.32913212 61.43161488 -11.36296082 54.13661194 C-12.62234058 49.91268678 -12.46784725 45.58652578 -12.46875 41.2109375 C-12.47636353 40.18948639 -12.48397705 39.16803528 -12.49182129 38.1156311 C-12.50258562 35.96578406 -12.50549039 33.81588488 -12.50097656 31.66601562 C-12.5000009 28.378025 -12.54173537 25.09234371 -12.5859375 21.8046875 C-12.59114248 19.71094235 -12.59383273 17.61718912 -12.59375 15.5234375 C-12.61014526 14.54313568 -12.62654053 13.56283386 -12.64343262 12.55282593 C-12.5963114 7.90419578 -12.51776084 5.69823561 -9.68164062 1.87353516 C-6.16266661 -0.58500513 -4.21445022 -0.60206432 0 0 Z " fill="#02BF64" transform="translate(228,378)"/>
<path d="M0 0 C3.33600367 2.05838525 4.8262176 3.7393264 7 7 C7.20468678 9.68604976 7.29370989 12.269277 7.29052734 14.95629883 C7.30060318 16.1714492 7.30060318 16.1714492 7.31088257 17.41114807 C7.32990266 20.0931713 7.333789 22.77494474 7.3359375 25.45703125 C7.34236348 27.32167158 7.34909169 29.1863109 7.35610962 31.0509491 C7.36809301 34.96245663 7.37178944 38.87387579 7.37060547 42.78540039 C7.37040241 47.79247736 7.39768602 52.79898589 7.43214989 57.80592823 C7.45441347 61.65873302 7.45844315 65.51140101 7.45738602 69.36426353 C7.4597435 71.2098149 7.46857536 73.05536994 7.48405075 74.90085793 C7.50369657 77.48614607 7.49787827 80.07020874 7.48583984 82.65551758 C7.49707886 83.41469482 7.50831787 84.17387207 7.51989746 84.95605469 C7.45903151 90.11252568 6.27761446 93.04421124 3 97 C-1.02702057 99.68468038 -4.2684363 99.68187737 -9 99 C-12.58903244 96.86185302 -14.5384391 94.88067804 -16 91 C-16.20571213 88.27652109 -16.3040194 85.65410322 -16.30639648 82.93017578 C-16.31472 82.1199295 -16.32304352 81.30968323 -16.33161926 80.47488403 C-16.35570032 77.7983112 -16.36448884 75.12198214 -16.37109375 72.4453125 C-16.38006124 70.58210172 -16.3891831 68.71889168 -16.39845276 66.85568237 C-16.41493995 62.95015717 -16.42264243 59.04471767 -16.42553711 55.13916016 C-16.43092189 50.13984807 -16.4686069 45.1413436 -16.51428127 40.1422596 C-16.54405379 36.2937426 -16.5512607 32.44542009 -16.55226326 28.59679794 C-16.55646486 26.75401992 -16.56889679 24.91124128 -16.58978081 23.06857681 C-16.61670102 20.48798815 -16.61186883 17.90927164 -16.59936523 15.32861328 C-16.61419952 14.57100708 -16.62903381 13.81340088 -16.64431763 13.03283691 C-16.5646495 7.24553703 -14.97336701 4.90337846 -11 1 C-7.5402669 -0.72986655 -3.78289201 -0.48431489 0 0 Z " fill="#080808" transform="translate(69,350)"/>
<path d="M0 0 C-0.37535159 2.57226238 -0.70203062 3.73405537 -2.671875 5.4921875 C-3.35765625 5.94851562 -4.0434375 6.40484375 -4.75 6.875 C-8.55131402 9.55506312 -11.18809418 12.30937361 -14 16 C-13.01688475 18.85103422 -12.09845773 19.93341023 -9.57421875 21.640625 C-4.72906371 23.48337249 -0.55796623 23.15428077 4.5625 22.9375 C16.9581378 22.69070902 28.4575416 24.2387955 38 33 C44.62228173 40.9187745 47.50710471 47.30251326 47.30859375 57.6484375 C46.38913179 67.63449268 41.23728876 74.50286475 33.81640625 80.875 C20.00448903 91.3983655 3.23114503 92.6822935 -13.421875 94.63671875 C-29.92164234 96.64968441 -44.3344652 99.88905868 -55.26025391 113.57910156 C-56.99123055 115.83074654 -58.6934691 118.10209704 -60.37866211 120.38818359 C-63.71091681 124.83691879 -67.21345971 128.1886914 -72 131 C-72.62261719 131.36996094 -73.24523437 131.73992187 -73.88671875 132.12109375 C-78.05967503 133.85661161 -82.57784438 133.54376136 -87 133 C-90.61691275 130.90219061 -91.68291409 129.95125774 -93 126 C-93.82527738 118.15986485 -91.56462256 112.49883551 -86.66601562 106.31640625 C-84.61102617 103.86116394 -82.50921803 101.45078197 -80.38818359 99.05249023 C-70.86474261 88.27003315 -67.89421818 78.77113244 -67.82421875 64.515625 C-67.80101654 62.67446778 -67.77689904 60.83332192 -67.75195312 58.9921875 C-67.71695266 56.12459725 -67.68753486 53.25742574 -67.67407227 50.38964844 C-67.55932794 29.89101656 -67.55932794 29.89101656 -63 21 C-61.68 21 -60.36 21 -59 21 C-59.43851817 23.55802265 -59.88521733 25.76211787 -61.01757812 28.10888672 C-62.37989967 32.11798506 -62.31720909 35.86312226 -62.34375 40.0703125 C-62.3583728 40.94718719 -62.37299561 41.82406189 -62.38806152 42.72750854 C-62.43442295 45.52662601 -62.46866069 48.32567657 -62.5 51.125 C-62.72928957 71.3730327 -63.26436644 87.45026039 -78.01879883 102.76123047 C-83.54266534 108.49766337 -88.08723738 114.32942392 -88.25 122.5625 C-88.27578125 123.34753906 -88.3015625 124.13257813 -88.328125 124.94140625 C-88.21984375 125.62074219 -88.1115625 126.30007813 -88 127 C-84.26899564 129.48733624 -82.66932854 129.21856583 -78.38671875 128.5703125 C-68.70596612 126.2570721 -63.90477822 118.0711922 -58.21191406 110.58984375 C-53.62752948 104.57584044 -48.93676248 101.17475619 -42.25 97.75 C-41.60651611 97.42016113 -40.96303223 97.09032227 -40.30004883 96.75048828 C-31.25553722 92.37660413 -21.85042176 90.6530154 -11.9375 89.5625 C14.34741111 86.71525678 14.34741111 86.71525678 36.1875 73 C42.24579715 64.95286792 43.01938662 58.00852317 42 48 C41.15710236 44.86923733 39.94269102 42.58249944 38 40 C37.54882812 39.38640625 37.09765625 38.7728125 36.6328125 38.140625 C31.76043646 32.46830663 25.33853747 29.21861486 18 28 C12.25062756 27.61386168 6.4940638 27.52105867 0.73339844 27.62744141 C-6.41785019 27.63051765 -10.54492763 26.87394066 -16.00878906 22.09741211 C-18.03266402 20.67646044 -18.03266402 20.67646044 -20.61230469 21.75219727 C-21.40024414 22.16397217 -22.18818359 22.57574707 -23 23 C-27.81174404 25.47461122 -32.697713 25.83988226 -38 25 C-41.21951585 23.34744687 -43.28117532 21.01288933 -45.375 18.0625 C-46.25305965 15.16490316 -46.36926081 13.01562998 -46 10 C-44.20006226 7.30009338 -42.916227 5.4581135 -40 4 C-31.93468568 3.30471428 -26.68868622 5.65087121 -20.5 10.75 C-19.675 11.4925 -18.85 12.235 -18 13 C-17.32453125 12.31292969 -16.6490625 11.62585938 -15.953125 10.91796875 C-14.61507812 9.56638672 -14.61507812 9.56638672 -13.25 8.1875 C-12.36828125 7.29417969 -11.4865625 6.40085938 -10.578125 5.48046875 C-4.88188976 0 -4.88188976 0 0 0 Z " fill="#11C36E" transform="translate(291,134)"/>
<path d="M0 0 C6.20801472 3.13109294 6.20801472 3.13109294 8.0625 6.25 C9.02737119 9.50557259 8.96684033 11.97599785 8.0625 15.25 C5.96933954 18.59318415 3.73403777 21.50598985 1.2265625 24.55078125 C-1.31926393 27.72617125 -2.7375576 29.9932192 -3.375 34 C-2.49068515 40.56919602 1.81527682 45.06920253 6.1875 49.8125 C11.37895391 55.5426897 13.55618535 60.24343461 13.30078125 68.09375 C12.98043155 70.99265217 12.16639309 73.5592606 11.0625 76.25 C9.0625 76.25 9.0625 76.25 7.72265625 75.02734375 C-8.39484314 56.46660484 -20.12887705 36.15990436 -26.9375 12.5 C-27.26754028 11.37416504 -27.26754028 11.37416504 -27.60424805 10.22558594 C-28.68809486 6.23499715 -29.19278087 3.23551675 -27.9375 -0.75 C-19.81229259 -3.45840247 -7.94997934 -3.04391101 0 0 Z " fill="#CAECFC" transform="translate(135.9375,208.75)"/>
<path d="M0 0 C5.18595604 3.54307684 7.43176947 9.5253265 9.046875 15.3984375 C13.69740372 15.66776271 13.69740372 15.66776271 18.046875 14.3984375 C22.96376394 13.86758754 26.83168038 13.69362462 31.171875 16.2109375 C33.046875 18.3984375 33.046875 18.3984375 33.046875 21.3984375 C29.171875 20.5234375 29.171875 20.5234375 28.046875 19.3984375 C15.6959024 18.21919891 3.56282278 17.92092916 -7.6015625 23.6796875 C-20.72848535 30.41144281 -35.52168605 33.06405624 -49.953125 35.3984375 C-51.77457031 35.69621094 -51.77457031 35.69621094 -53.6328125 36 C-57.08740826 36.41455149 -60.41288798 36.49679046 -63.890625 36.4609375 C-65.03402344 36.45191406 -66.17742187 36.44289063 -67.35546875 36.43359375 C-68.21269531 36.42199219 -69.06992188 36.41039062 -69.953125 36.3984375 C-70.613125 37.7184375 -71.273125 39.0384375 -71.953125 40.3984375 C-73.273125 40.3984375 -74.593125 40.3984375 -75.953125 40.3984375 C-75.76513313 36.35661222 -75.24839092 34.71584836 -72.453125 31.7109375 C-67.79179345 28.26177255 -62.49434447 26.83152754 -56.8359375 25.8671875 C-45.63465095 23.86413391 -40.17241275 18.23409346 -33.015625 9.7734375 C-24.32419994 -0.33699574 -12.61884426 -6.13536911 0 0 Z " fill="#CBECFD" transform="translate(291.953125,280.6015625)"/>
<path d="M0 0 C0 1.32 0 2.64 0 4 C-1.051875 4.32871094 -1.051875 4.32871094 -2.125 4.6640625 C-12.38238358 8.09248147 -19.20749097 12.79710843 -25 22 C-25.41507812 22.62003906 -25.83015625 23.24007813 -26.2578125 23.87890625 C-31.92738073 34.00879914 -29.85000371 48.33336176 -26.97094727 59.10424805 C-22.87097917 72.77362622 -14.84370157 84.88762393 -7.32080078 96.87548828 C-6.05399634 98.91314674 -4.81644312 100.96528653 -3.58984375 103.02734375 C-3.22375 103.63876221 -2.85765625 104.25018066 -2.48046875 104.88012695 C-1.50347343 106.51462732 -0.53087297 108.15175238 0.44140625 109.7890625 C0.95574219 110.51867187 1.47007812 111.24828125 2 112 C2.66 112 3.32 112 4 112 C29.53023852 70.24106573 29.53023852 70.24106573 33.34765625 22.796875 C31.27400323 16.85180968 28.44438047 14.06865081 23 11 C17.91972433 9.30657478 12.08920304 9.03060926 6.93359375 10.6484375 C0.36677391 14.08610158 -4.21398526 20.25491169 -7 27 C-7.76956136 29.34533951 -7.76956136 29.34533951 -8 32 C-8.07605469 32.64710937 -8.15210938 33.29421875 -8.23046875 33.9609375 C-8.66008462 40.57934421 -6.63220217 45.51221628 -3 51 C0.40712155 54.24865078 2.67836893 55.87762675 7.375 56.3125 C11.01402973 56.32512451 11.01402973 56.32512451 13.375 54.1875 C16.14962725 50.45242486 16.24112686 47.09873979 16.375 42.5625 C16.42398438 41.42941406 16.47296875 40.29632813 16.5234375 39.12890625 C16.28026797 35.84093522 16.28026797 35.84093522 13.71484375 33.66796875 C11.44630106 32.27420224 9.74653639 31.35212621 7.1875 30.75 C6.135625 30.5025 5.08375 30.255 4 30 C4.495 28.515 4.495 28.515 5 27 C8.38614807 26.58536962 10.96989247 26.36957419 13.953125 28.1953125 C18.00031225 31.5793052 20.67239998 34.33348825 21.3359375 39.734375 C21.44315914 48.01188528 20.32327958 53.30746713 14.75 59.5 C11.04631267 61.52019309 8.05949607 61.80753416 4 61 C-2.97805773 58.64638392 -6.39342407 54.73518828 -9.90625 48.40234375 C-13.22469796 41.11360983 -13.38119085 32.21756492 -10.90625 24.66015625 C-6.98270437 16.38523156 -1.75673057 9.4697626 6.76953125 5.66015625 C13.64732652 3.62452157 20.5787258 4.36203508 26.9296875 7.6171875 C33.03178221 11.69292623 36.83308926 17.01370825 38.5625 24.13671875 C43.44908734 56.11768767 25.23535393 86.85463899 8.8125 112.7890625 C8.17957031 113.7888916 7.54664063 114.7887207 6.89453125 115.81884766 C6.26933594 116.53862793 5.64414062 117.2584082 5 118 C3.68 118 2.36 118 1 118 C-0.8581378 115.6331233 -2.39017843 113.37457927 -3.9375 110.8125 C-4.40768555 110.05727051 -4.87787109 109.30204102 -5.36230469 108.52392578 C-6.38061016 106.88524651 -7.39290084 105.24281792 -8.39990234 103.59716797 C-10.02791585 100.95468892 -11.69094486 98.33727599 -13.36328125 95.72265625 C-26.24099066 75.47382374 -35.73446685 56.67340164 -34 32 C-31.71476793 22.15391439 -24.98903593 12.16800568 -17 6 C-6.23833674 -0.46844653 -6.23833674 -0.46844653 0 0 Z " fill="#12C36E" transform="translate(295,7)"/>
<path d="M0 0 C0.77085937 0.05542969 1.54171875 0.11085938 2.3359375 0.16796875 C5.42889327 1.0388522 6.60680824 2.32632103 8.625 4.8125 C9.13293457 7.53770447 9.13293457 7.53770447 9.14257812 10.69506836 C9.15518677 11.87987289 9.16779541 13.06467743 9.18078613 14.28538513 C9.17268921 15.56148148 9.16459229 16.83757782 9.15625 18.15234375 C9.1600769 19.46658829 9.16390381 20.78083282 9.16784668 22.13490295 C9.1737379 24.91491529 9.16519339 27.69441285 9.14648438 30.47436523 C9.12371597 34.02999675 9.13680489 37.58441909 9.16077423 41.14000607 C9.17874517 44.54004761 9.16614336 47.93976789 9.15625 51.33984375 C9.16434692 52.61391586 9.17244385 53.88798798 9.18078613 55.20066833 C9.16817749 56.38862503 9.15556885 57.57658173 9.14257812 58.80053711 C9.13780457 60.36462563 9.13780457 60.36462563 9.13293457 61.96031189 C8.49670301 65.53292185 7.11502472 67.22172924 4.625 69.8125 C0.82680906 71.38312369 -2.49881362 71.17440307 -6.25 69.625 C-9.22379171 67.0885306 -10.24837498 65.06692295 -10.64242554 61.16322327 C-10.65004913 60.15682297 -10.65767273 59.15042267 -10.66552734 58.11352539 C-10.67828705 56.96876236 -10.69104675 55.82399933 -10.70419312 54.64454651 C-10.70641876 53.41219772 -10.70864441 52.17984894 -10.7109375 50.91015625 C-10.7175943 49.6403038 -10.7242511 48.37045135 -10.73110962 47.06211853 C-10.74123598 44.37631203 -10.74679179 41.69091037 -10.74560547 39.00512695 C-10.74540219 35.5706408 -10.77271765 32.13698131 -10.80714989 28.70269108 C-10.83478649 25.41771061 -10.83356847 22.1327372 -10.8359375 18.84765625 C-10.85030853 17.6173317 -10.86467957 16.38700714 -10.87948608 15.11940002 C-10.87333282 13.97148483 -10.86717957 12.82356964 -10.86083984 11.64086914 C-10.86368988 10.63367325 -10.86653992 9.62647736 -10.86947632 8.58876038 C-10.24109812 5.06070164 -8.82191793 3.38043229 -6.375 0.8125 C-3.9523097 -0.39884515 -2.67949901 -0.23590274 0 0 Z " fill="#01BF64" transform="translate(319.375,378.1875)"/>
<path d="M0 0 C3.95091542 1.45002669 6.30364716 2.96439834 8.67578125 6.4921875 C10.46681162 11.23656883 10.47607443 15.47129661 10.4375 20.5 C10.4674707 21.88638672 10.4674707 21.88638672 10.49804688 23.30078125 C10.49394416 29.03637922 9.93056583 32.52371413 6 37 C2.97504529 39.91383393 0.79355965 40.45329345 -3.375 40.5 C-7.13923749 40.39948632 -9.59168353 40.12665318 -12.5625 37.75 C-17.46801352 32.21557449 -17.36521111 27.77088891 -17.375 20.625 C-17.39949219 19.69171875 -17.42398437 18.7584375 -17.44921875 17.796875 C-17.47382583 12.00600832 -16.9412412 8.54923667 -13 4 C-8.638806 0.31721396 -5.68625269 -0.79807055 0 0 Z " fill="#F7FDFA" transform="translate(392,393)"/>
<path d="M0 0 C5.18595604 3.54307684 7.43176947 9.5253265 9.046875 15.3984375 C13.69740372 15.66776271 13.69740372 15.66776271 18.046875 14.3984375 C22.96376394 13.86758754 26.83168038 13.69362462 31.171875 16.2109375 C33.046875 18.3984375 33.046875 18.3984375 33.046875 21.3984375 C29.171875 20.5234375 29.171875 20.5234375 28.046875 19.3984375 C26.51906184 19.347922 24.98896762 19.36278936 23.4609375 19.40625 C22.53023438 19.42300781 21.59953125 19.43976563 20.640625 19.45703125 C18.6690761 19.50113169 16.69768772 19.55315409 14.7265625 19.61328125 C13.79328125 19.62746094 12.86 19.64164062 11.8984375 19.65625 C10.61187256 19.68936279 10.61187256 19.68936279 9.29931641 19.72314453 C6.53580458 19.32476271 5.72029273 18.59042941 4.046875 16.3984375 C3.37866899 14.58746285 2.77945004 12.75019928 2.234375 10.8984375 C0.68886025 6.48947169 0.68886025 6.48947169 -2.578125 3.2109375 C-7.89092004 1.93193129 -13.01174419 0.97393462 -18.11425781 3.44506836 C-25.03881481 8.11151286 -30.48193329 13.81846793 -36.11523438 19.94140625 C-42.82587623 26.95042887 -49.50388459 30.33841123 -59.203125 31.3984375 C-64.21311418 32.13254903 -67.17007516 33.01360343 -70.953125 36.3984375 C-72.34181016 38.49883081 -72.34181016 38.49883081 -72.953125 40.3984375 C-73.943125 40.3984375 -74.933125 40.3984375 -75.953125 40.3984375 C-75.76513313 36.35661222 -75.24839092 34.71584836 -72.453125 31.7109375 C-67.79179345 28.26177255 -62.49434447 26.83152754 -56.8359375 25.8671875 C-45.63465095 23.86413391 -40.17241275 18.23409346 -33.015625 9.7734375 C-24.32419994 -0.33699574 -12.61884426 -6.13536911 0 0 Z " fill="#0FC26E" transform="translate(291.953125,280.6015625)"/>
<path d="M0 0 C5.12940786 0.06513534 7.76666363 1.47183635 11.5625 4.875 C13.43587786 8.62175571 13.52902557 12.15657475 12.75 16.25 C11.03095248 19.31881816 8.94285833 21.65357084 5.75 23.25 C0.83003072 23.78118252 -3.02327597 24.00105553 -7.3125 21.375 C-10.87029778 17.47289921 -10.63341722 14.07827879 -10.61328125 8.95703125 C-10.25 6.25 -10.25 6.25 -7.8125 3.125 C-6.966875 2.50625 -6.12125 1.8875 -5.25 1.25 C-3.68966377 -0.31033623 -2.16052864 0.04292441 0 0 Z " fill="#05C066" transform="translate(459.25,425.75)"/>
<path d="M0 0 C0.33 0.66 0.66 1.32 1 2 C0.02912639 4.44413579 -1.00481062 6.72125211 -2.1875 9.0625 C-2.54263672 9.76769775 -2.89777344 10.47289551 -3.26367188 11.19946289 C-9.26353918 22.71062962 -17.29733767 35.2676039 -27 44 C-27.66 44 -28.32 44 -29 44 C-30.61603993 41.13637725 -31.31658464 38.97628469 -31.375 35.6875 C-31.40335937 34.96949219 -31.43171875 34.25148438 -31.4609375 33.51171875 C-30.22158292 26.7582866 -26.15482825 22.80746574 -20.75 19 C-19.58586653 18.141181 -18.42310293 17.280502 -17.26171875 16.41796875 C-16.70145996 16.00595215 -16.14120117 15.59393555 -15.56396484 15.16943359 C-9.61931753 10.72440384 -4.68367907 5.73750686 0 0 Z " fill="#F5FCF9" transform="translate(384,240)"/>
<path d="M0 0 C5.53846154 3.07692308 5.53846154 3.07692308 7 6 C7.5098625 10.4188083 7.29172207 12.50771901 5 16.375 C1.75491433 19.21444996 0.11614982 19.95091395 -4.07421875 20.171875 C-7.97436919 19.82378855 -10.14180145 17.85819855 -12.8125 15.1875 C-14.46290867 12.1472735 -14.54728027 10.42050168 -14 7 C-10.24122594 0.99988289 -7.01769309 -0.58480776 0 0 Z " fill="#09C168" transform="translate(322,348)"/>
<path d="M0 0 C4.89091548 1.89918639 7.99596305 4.67418679 11 9 C7.15413976 11.79698927 4.07556475 13.8359308 -0.6875 14.5625 C-4.69170081 13.88254137 -6.3294311 13.06329962 -9 10 C-10.625 4.2109375 -10.625 4.2109375 -9 1.0625 C-5.82159415 -0.62602811 -3.55124757 -0.41431222 0 0 Z " fill="#F5FCF9" transform="translate(259,142)"/>
</svg>
